<svg data-v-fde0c5aa="" xmlns="http://www.w3.org/2000/svg" viewBox="0 0 128 128"
    class="iconLeftSlogan"><!---->
    <defs data-v-fde0c5aa=""><!---->
    </defs>
    <circle data-v-fde0c5aa="" fill="#51A5D7" cx="64" cy="64" r="64" class="logo-background-circle">
    </circle>
    <g data-v-fde0c5aa="" id="c384ea37-ceba-4697-904b-a8162751fcf7" stroke="none" fill="#A0CD9A"
        transform="matrix(3.8,0,0,3.4,3.906360697977995,1.42054771534538)">
        <g stroke-linecap="round" stroke-linejoin="round">
            <path
                d="M15.331 12.01A6.502 6.502 0 002.52 13.998C2.78 17.383 5.602 19.998 9 20l7.51-.01a4.748 4.748 0 003.686-8.02 4.753 4.753 0 00-5.214-1.13">
            </path>
            <path
                d="M21.075 21.505a.491.51 0 00-.565.499v.952l-.875-.29a.491.51 0 00-.299.97l.874.29-.536.773a.491.51 0 00.797.595l.536-.773.544.768a.491.51 0 00.792-.603l-.543-.768.871-.298a.491.51 0 00-.307-.967l-.872.298V22a.491.51 0 00-.417-.495z"
                style="line-height:normal;text-indent:0;text-align:start;text-decoration-line:none;text-decoration-style:solid;text-decoration-color:#000;text-transform:none;white-space:normal;isolation:auto;mix-blend-mode:normal;solid-color:#000;solid-opacity:1"
                color="#000" font-weight="400" font-family="sans-serif" overflow="visible"
                stroke-width="3.288"></path>
            <path
                style="line-height:normal;text-indent:0;text-align:start;text-decoration-line:none;text-decoration-style:solid;text-decoration-color:#000;text-transform:none;white-space:normal;isolation:auto;mix-blend-mode:normal;solid-color:#000;solid-opacity:1"
                d="M26 26.5a.5.5 0 00-.493.507v2.986a.5.5 0 101 0v-2.986A.5.5 0 0026 26.5z"
                color="#000"
                font-weight="400" font-family="sans-serif" overflow="visible"></path>
            <path
                style="line-height:normal;text-indent:0;text-align:start;text-decoration-line:none;text-decoration-style:solid;text-decoration-color:#000;text-transform:none;white-space:normal;isolation:auto;mix-blend-mode:normal;solid-color:#000;solid-opacity:1"
                d="M24.515 27.999a.5.5 0 100 1H27.5a.5.5 0 100-1z" color="#000" font-weight="400"
                font-family="sans-serif" overflow="visible"></path>
            <path
                d="M17.574 2.006a.491.51 0 00-.565.498v.953l-.875-.29a.491.51 0 00-.3.97l.875.29-.536.772a.491.51 0 00.797.595l.536-.772.543.767a.491.51 0 00.793-.602l-.543-.768.871-.298a.491.51 0 00-.307-.967l-.873.298V2.5a.491.51 0 00-.416-.494zM27.077 12.506a.491.51 0 00-.565.498v.953l-.875-.29a.491.51 0 00-.3.97l.875.29-.536.772a.491.51 0 00.797.595l.536-.773.544.768a.491.51 0 00.792-.603l-.543-.767.871-.298a.491.51 0 00-.307-.967l-.872.297V13a.491.51 0 00-.417-.494z"
                style="line-height:normal;text-indent:0;text-align:start;text-decoration-line:none;text-decoration-style:solid;text-decoration-color:#000;text-transform:none;white-space:normal;isolation:auto;mix-blend-mode:normal;solid-color:#000;solid-opacity:1"
                color="#000" font-weight="400" font-family="sans-serif" overflow="visible"
                stroke-width="3.288"></path>
            <path
                style="line-height:normal;text-indent:0;text-align:start;text-decoration-line:none;text-decoration-style:solid;text-decoration-color:#000;text-transform:none;white-space:normal;isolation:auto;mix-blend-mode:normal;solid-color:#000;solid-opacity:1"
                d="M24.5 5.5a.5.5 0 00-.493.507v2.986a.5.5 0 101 0V6.007A.5.5 0 0024.5 5.5z"
                color="#000"
                font-weight="400" font-family="sans-serif" overflow="visible"></path>
            <path
                style="line-height:normal;text-indent:0;text-align:start;text-decoration-line:none;text-decoration-style:solid;text-decoration-color:#000;text-transform:none;white-space:normal;isolation:auto;mix-blend-mode:normal;solid-color:#000;solid-opacity:1"
                d="M23.014 7a.5.5 0 100 1H26a.5.5 0 100-1zM7.494 22.499a.5.5 0 00-.493.508v2.986a.5.5 0 101 0v-2.986a.5.5 0 00-.507-.508z"
                color="#000" font-weight="400" font-family="sans-serif" overflow="visible"></path>
            <path
                style="line-height:normal;text-indent:0;text-align:start;text-decoration-line:none;text-decoration-style:solid;text-decoration-color:#000;text-transform:none;white-space:normal;isolation:auto;mix-blend-mode:normal;solid-color:#000;solid-opacity:1"
                d="M6.009 23.999a.5.5 0 100 1h2.985a.5.5 0 100-1z" color="#000" font-weight="400"
                font-family="sans-serif" overflow="visible"></path>
            <path
                d="M14.573 25.505a.491.51 0 00-.565.499v.952l-.875-.29a.491.51 0 00-.3.97l.875.29-.536.773a.491.51 0 00.797.595l.536-.773.543.768a.491.51 0 00.793-.603l-.543-.768.871-.298a.491.51 0 00-.307-.967l-.873.298V26a.491.51 0 00-.416-.495z"
                style="line-height:normal;text-indent:0;text-align:start;text-decoration-line:none;text-decoration-style:solid;text-decoration-color:#000;text-transform:none;white-space:normal;isolation:auto;mix-blend-mode:normal;solid-color:#000;solid-opacity:1"
                color="#000" font-weight="400" font-family="sans-serif" overflow="visible"
                stroke-width="3.288"></path>
        </g>
    </g>
</svg>